<svg width="14" height="14" viewBox="0 0 14 14" fill="none" xmlns="http://www.w3.org/2000/svg">
<path d="M13.4319 9.74995C13.4979 9.86455 13.5159 10.0007 13.4818 10.1285C13.4477 10.2562 13.3643 10.3653 13.25 10.4318L7.25 13.9318C7.17355 13.9764 7.08663 13.9999 6.99812 13.9999C6.90962 13.9999 6.8227 13.9764 6.74625 13.9318L0.74625 10.4318C0.633559 10.3641 0.552074 10.2547 0.519438 10.1274C0.486801 10 0.50564 9.86493 0.571875 9.75136C0.63811 9.63779 0.746411 9.55487 0.87333 9.52057C1.00025 9.48627 1.13557 9.50333 1.25 9.56808L7 12.9212L12.75 9.56808C12.8646 9.50204 13.0007 9.4841 13.1285 9.51818C13.2563 9.55227 13.3654 9.63561 13.4319 9.74995ZM12.75 6.56808L7 9.9212L1.25 6.56808C1.13615 6.51139 1.00498 6.50022 0.883191 6.53684C0.761398 6.57345 0.658135 6.65511 0.594421 6.76517C0.530706 6.87524 0.511328 7.00545 0.540232 7.1293C0.569135 7.25315 0.644147 7.36133 0.75 7.43183L6.75 10.9318C6.82645 10.9764 6.91337 10.9999 7.00187 10.9999C7.09038 10.9999 7.1773 10.9764 7.25375 10.9318L13.2537 7.43183C13.3114 7.39922 13.362 7.35549 13.4025 7.30318C13.4431 7.25087 13.4729 7.19102 13.4902 7.1271C13.5075 7.06319 13.5119 6.99647 13.5032 6.93084C13.4945 6.8652 13.4728 6.80195 13.4394 6.74475C13.4061 6.68756 13.3617 6.63755 13.3089 6.59765C13.256 6.55775 13.1958 6.52873 13.1317 6.5123C13.0675 6.49586 13.0007 6.49233 12.9352 6.5019C12.8697 6.51148 12.8068 6.53397 12.75 6.56808ZM0.5 3.99995C0.500199 3.91237 0.523397 3.82639 0.567271 3.7506C0.611145 3.6748 0.674157 3.61186 0.75 3.56808L6.75 0.0680753C6.82645 0.0234916 6.91337 0 7.00187 0C7.09038 0 7.1773 0.0234916 7.25375 0.0680753L13.2537 3.56808C13.3292 3.61211 13.3918 3.67516 13.4354 3.75093C13.4789 3.82671 13.5018 3.91257 13.5018 3.99995C13.5018 4.08733 13.4789 4.17319 13.4354 4.24897C13.3918 4.32474 13.3292 4.38779 13.2537 4.43183L7.25375 7.93183C7.1773 7.97641 7.09038 7.9999 7.00187 7.9999C6.91337 7.9999 6.82645 7.97641 6.75 7.93183L0.75 4.43183C0.674157 4.38804 0.611145 4.3251 0.567271 4.24931C0.523397 4.17351 0.500199 4.08753 0.5 3.99995ZM1.9925 3.99995L7 6.9212L12.0075 3.99995L7 1.0787L1.9925 3.99995Z" fill="#363434"/>
</svg>
