<svg width="16" height="17" viewBox="0 0 16 17" fill="none" xmlns="http://www.w3.org/2000/svg">
<path d="M14.4319 11.5C14.4979 11.6146 14.5159 11.7507 14.4818 11.8785C14.4477 12.0062 14.3643 12.1153 14.25 12.1818L8.25 15.6818C8.17355 15.7264 8.08663 15.7499 7.99812 15.7499C7.90962 15.7499 7.8227 15.7264 7.74625 15.6818L1.74625 12.1818C1.63356 12.1141 1.55207 12.0047 1.51944 11.8774C1.4868 11.75 1.50564 11.6149 1.57188 11.5014C1.63811 11.3878 1.74641 11.3049 1.87333 11.2706C2.00025 11.2363 2.13557 11.2533 2.25 11.3181L8 14.6712L13.75 11.3181C13.8646 11.252 14.0007 11.2341 14.1285 11.2682C14.2563 11.3023 14.3654 11.3856 14.4319 11.5ZM13.75 8.31808L8 11.6712L2.25 8.31808C2.13615 8.26139 2.00498 8.25022 1.88319 8.28684C1.7614 8.32345 1.65814 8.40511 1.59442 8.51517C1.53071 8.62524 1.51133 8.75545 1.54023 8.8793C1.56914 9.00315 1.64415 9.11133 1.75 9.18183L7.75 12.6818C7.82645 12.7264 7.91337 12.7499 8.00187 12.7499C8.09038 12.7499 8.1773 12.7264 8.25375 12.6818L14.2537 9.18183C14.3114 9.14922 14.362 9.10549 14.4025 9.05318C14.4431 9.00087 14.4729 8.94102 14.4902 8.8771C14.5075 8.81319 14.5119 8.74647 14.5032 8.68084C14.4945 8.6152 14.4728 8.55195 14.4394 8.49475C14.4061 8.43756 14.3617 8.38755 14.3089 8.34765C14.256 8.30775 14.1958 8.27873 14.1317 8.2623C14.0675 8.24586 14.0007 8.24233 13.9352 8.2519C13.8697 8.26148 13.8068 8.28397 13.75 8.31808ZM1.5 5.74995C1.5002 5.66237 1.5234 5.57639 1.56727 5.5006C1.61115 5.4248 1.67416 5.36186 1.75 5.31808L7.75 1.81808C7.82645 1.77349 7.91337 1.75 8.00187 1.75C8.09038 1.75 8.1773 1.77349 8.25375 1.81808L14.2537 5.31808C14.3292 5.36211 14.3918 5.42516 14.4354 5.50093C14.4789 5.57671 14.5018 5.66257 14.5018 5.74995C14.5018 5.83733 14.4789 5.92319 14.4354 5.99897C14.3918 6.07474 14.3292 6.13779 14.2537 6.18183L8.25375 9.68183C8.1773 9.72641 8.09038 9.7499 8.00187 9.7499C7.91337 9.7499 7.82645 9.72641 7.75 9.68183L1.75 6.18183C1.67416 6.13804 1.61115 6.0751 1.56727 5.99931C1.5234 5.92351 1.5002 5.83753 1.5 5.74995ZM2.9925 5.74995L8 8.6712L13.0075 5.74995L8 2.8287L2.9925 5.74995Z" fill="white"/>
</svg>
