<svg width="25" height="25" viewBox="0 0 25 25" fill="none" xmlns="http://www.w3.org/2000/svg">
<g clip-path="url(#clip0_918_1642)">
<path d="M10 16.6562C11.6569 16.6562 13 15.3131 13 13.6562C13 11.9994 11.6569 10.6562 10 10.6562C8.34315 10.6562 7 11.9994 7 13.6562C7 15.3131 8.34315 16.6562 10 16.6562Z" stroke="#2D1C4D" stroke-width="2" stroke-linecap="round" stroke-linejoin="round"/>
<path d="M5.25531 19.6562C5.6808 18.7579 6.35257 17.9989 7.1925 17.4673C8.03243 16.9358 9.006 16.6536 10 16.6536C10.994 16.6536 11.9676 16.9358 12.8075 17.4673C13.6474 17.9989 14.3192 18.7579 14.7447 19.6562H20.5C20.6989 19.6562 20.8897 19.5772 21.0303 19.4366C21.171 19.2959 21.25 19.1052 21.25 18.9062V5.40625C21.25 5.20734 21.171 5.01657 21.0303 4.87592C20.8897 4.73527 20.6989 4.65625 20.5 4.65625H4C3.80109 4.65625 3.61032 4.73527 3.46967 4.87592C3.32902 5.01657 3.25 5.20734 3.25 5.40625V18.9062C3.25 19.1052 3.32902 19.2959 3.46967 19.4366C3.61032 19.5772 3.80109 19.6562 4 19.6562H5.25531Z" stroke="#2D1C4D" stroke-width="2" stroke-linecap="round" stroke-linejoin="round"/>
<path d="M16.75 16.6562H18.25V7.65625H6.25V9.15625" stroke="#2D1C4D" stroke-width="2" stroke-linecap="round" stroke-linejoin="round"/>
</g>
<defs>
<clipPath id="clip0_918_1642">
<rect width="24" height="24" fill="white" transform="translate(0.25 0.15625)"/>
</clipPath>
</defs>
</svg>
