<svg width="40" height="40" viewBox="0 0 40 40" fill="none" xmlns="http://www.w3.org/2000/svg">
<rect x="0.025" y="0.025" width="39.95" height="39.95" stroke="#9F68FE" stroke-width="0.05"/>
<path d="M39.2032 8.30908H0.796797C0.356797 8.30908 0 8.6658 0 9.10588V30.894C0 31.3341 0.356797 31.6908 0.796797 31.6908H39.2032C39.6432 31.6908 40 31.3341 40 30.894V9.10588C40 8.6658 39.6432 8.30908 39.2032 8.30908ZM38.4064 30.0973H1.59359V9.90268H38.4063L38.4064 30.0973Z" fill="#9F68FE"/>
<path d="M34.7673 24.4844H24.2968C23.8568 24.4844 23.5 24.8411 23.5 25.2812C23.5 25.7213 23.8567 26.078 24.2968 26.078H34.7673C35.2073 26.078 35.5641 25.7213 35.5641 25.2812C35.5641 24.8411 35.2073 24.4844 34.7673 24.4844Z" fill="#9F68FE"/>
<path d="M34.7673 19.3682H24.2968C23.8568 19.3682 23.5 19.7249 23.5 20.165C23.5 20.605 23.8567 20.9618 24.2968 20.9618H34.7673C35.2073 20.9618 35.5641 20.605 35.5641 20.165C35.5641 19.7249 35.2073 19.3682 34.7673 19.3682Z" fill="#9F68FE"/>
<path d="M34.811 14.2517H34.1835C33.7435 14.2517 33.3867 14.6084 33.3867 15.0485C33.3867 15.4886 33.7435 15.8453 34.1835 15.8453H34.811C35.251 15.8453 35.6078 15.4886 35.6078 15.0485C35.6078 14.6085 35.251 14.2517 34.811 14.2517Z" fill="#9F68FE"/>
<path d="M31.155 14.2517H24.2968C23.8568 14.2517 23.5 14.6084 23.5 15.0485C23.5 15.4886 23.8567 15.8453 24.2968 15.8453H31.155C31.595 15.8453 31.9518 15.4886 31.9518 15.0485C31.9518 14.6085 31.595 14.2517 31.155 14.2517Z" fill="#9F68FE"/>
<path d="M12.5773 20.7854C8.16875 20.7854 4.58203 23.7317 4.58203 27.3529C4.58203 27.793 4.93875 28.1497 5.37883 28.1497H19.7759C20.2159 28.1497 20.5727 27.793 20.5727 27.3529C20.5727 23.7315 16.9861 20.7854 12.5773 20.7854ZM6.25773 26.5562C6.70508 24.4069 8.93141 22.7148 11.7211 22.4238V24.1999C11.7211 24.64 12.0779 24.9967 12.5179 24.9967C12.9579 24.9967 13.3147 24.64 13.3147 24.1999V22.4131C16.1596 22.668 18.4434 24.3765 18.897 26.5562H6.25773Z" fill="#9F68FE"/>
<path d="M12.5096 11.7244C10.225 11.7244 8.36621 13.5831 8.36621 15.8678C8.36621 18.1525 10.225 20.0112 12.5096 20.0112C14.7943 20.0112 16.6531 18.1525 16.6531 15.8678C16.6531 13.5831 14.7943 11.7244 12.5096 11.7244ZM12.5096 18.4176C11.1036 18.4176 9.95988 17.2737 9.95988 15.8678C9.95988 14.4619 11.1037 13.318 12.5096 13.318C13.9156 13.318 15.0594 14.4619 15.0594 15.8678C15.0594 17.2737 13.9156 18.4176 12.5096 18.4176Z" fill="#9F68FE"/>
</svg>
