<svg width="41" height="40" viewBox="0 0 41 40" fill="none" xmlns="http://www.w3.org/2000/svg">
<g clip-path="url(#clip0_665_43556)">
<path d="M34.25 12.5H6.75C6.05964 12.5 5.5 13.0596 5.5 13.75V18.75C5.5 19.4404 6.05964 20 6.75 20H34.25C34.9404 20 35.5 19.4404 35.5 18.75V13.75C35.5 13.0596 34.9404 12.5 34.25 12.5Z" stroke="#2D1C4D" stroke-width="2" stroke-linecap="round" stroke-linejoin="round"/>
<path d="M33 20V31.25C33 31.5815 32.8683 31.8995 32.6339 32.1339C32.3995 32.3683 32.0815 32.5 31.75 32.5H9.25C8.91848 32.5 8.60054 32.3683 8.36612 32.1339C8.1317 31.8995 8 31.5815 8 31.25V20" stroke="#2D1C4D" stroke-width="2" stroke-linecap="round" stroke-linejoin="round"/>
<path d="M20.5 12.5V32.5" stroke="#2D1C4D" stroke-width="2" stroke-linecap="round" stroke-linejoin="round"/>
<path d="M28.1234 4.87656C29.5828 6.33594 29.6687 8.79219 28.1234 10.1609C25.4812 12.5 20.5 12.5 20.5 12.5C20.5 12.5 20.5 7.51875 22.8437 4.87656C24.2078 3.33125 26.6641 3.41719 28.1234 4.87656Z" stroke="#2D1C4D" stroke-width="2" stroke-linecap="round" stroke-linejoin="round"/>
<path d="M12.8765 4.87656C11.4171 6.33594 11.3312 8.79219 12.8765 10.1609C15.5187 12.5 20.4999 12.5 20.4999 12.5C20.4999 12.5 20.4999 7.51875 18.1562 4.87656C16.7921 3.33125 14.3359 3.41719 12.8765 4.87656Z" stroke="#2D1C4D" stroke-width="2" stroke-linecap="round" stroke-linejoin="round"/>
</g>
<defs>
<clipPath id="clip0_665_43556">
<rect width="40" height="40" fill="white" transform="translate(0.5)"/>
</clipPath>
</defs>
</svg>
