<svg width="435" height="428" viewBox="0 0 435 428" fill="none" xmlns="http://www.w3.org/2000/svg">
<path d="M303.364 108.833C299.161 108.833 295.106 109.46 291.282 110.621C286.604 106.924 280.694 104.717 274.268 104.717C259.099 104.717 246.803 117.014 246.803 132.183C246.803 143.079 253.148 152.493 262.345 156.932C265.491 176.754 282.657 191.908 303.364 191.908C326.305 191.908 344.901 173.311 344.901 150.371C344.901 127.43 326.305 108.833 303.364 108.833Z" fill="url(#paint0_linear_548_4446)"/>
<path d="M220.586 187.914C225.804 179.053 228.796 168.726 228.796 157.699C228.796 124.761 202.095 98.0605 169.158 98.0605C136.22 98.0605 109.52 124.761 109.52 157.699C109.52 190.636 136.22 217.337 169.158 217.337C171.187 217.337 173.192 217.236 175.17 217.038C178.013 229.916 189.495 239.55 203.228 239.55C219.098 239.55 231.964 226.685 231.964 210.814C231.964 201.466 227.499 193.162 220.586 187.914Z" fill="url(#paint1_linear_548_4446)"/>
<path d="M370.961 257.065C370.961 268.518 361.676 277.803 350.223 277.803C338.77 277.803 329.484 268.518 329.484 257.065C329.484 245.611 338.77 236.327 350.223 236.327C361.676 236.327 370.961 245.611 370.961 257.065Z" fill="url(#paint2_linear_548_4446)"/>
<path d="M73.7539 235.564C73.7539 244.798 66.2676 252.285 57.0332 252.285C47.7988 252.285 40.3135 244.798 40.3135 235.564C40.3135 226.33 47.7988 218.844 57.0332 218.844C66.2676 218.844 73.7539 226.33 73.7539 235.564Z" fill="url(#paint3_linear_548_4446)"/>
<path d="M434.594 355.087C434.594 360.44 430.254 364.78 424.901 364.78C419.549 364.78 415.209 360.44 415.209 355.087C415.209 349.734 419.549 345.395 424.901 345.395C430.254 345.395 434.594 349.734 434.594 355.087Z" fill="url(#paint4_linear_548_4446)"/>
<path d="M413.124 257.065C413.124 260.482 410.353 263.253 406.936 263.253C403.518 263.253 400.747 260.482 400.747 257.065C400.747 253.648 403.518 250.877 406.936 250.877C410.353 250.877 413.124 253.648 413.124 257.065Z" fill="url(#paint5_linear_548_4446)"/>
<path d="M397.506 322.865C397.506 322.865 340.397 346.202 329.312 392.858" stroke="#1A1A1A" stroke-width="1.07726" stroke-linecap="round" stroke-linejoin="round"/>
<path d="M407.461 344.035C403.931 344.604 400.57 341.974 399.961 338.164C400.57 341.974 398.202 345.522 394.671 346.088C391.138 346.656 387.78 344.025 387.168 340.216C386.947 338.831 388.12 336.03 388.599 334.844C387.637 336.347 385.115 338.881 383.292 339.173C380.314 339.653 377.452 337.873 376.238 335.03C376.002 334.474 375.826 333.88 375.725 333.253C375.625 332.625 375.605 332.006 375.657 331.403C375.869 328.92 377.311 326.761 379.424 325.767C377.106 325.481 375.061 323.883 374.084 321.591C373.847 321.035 373.672 320.441 373.571 319.814C373.47 319.186 373.451 318.567 373.503 317.965C373.766 314.884 375.924 312.301 378.903 311.821C380.727 311.528 384.085 313.63 385.47 314.754C384.647 313.78 382.482 311.004 382.26 309.617C381.648 305.808 384.015 302.261 387.549 301.693C391.08 301.127 394.44 303.755 395.051 307.566C394.44 303.755 396.808 300.207 400.338 299.64C403.871 299.073 407.23 301.703 407.842 305.512C408.065 306.899 407.549 309.136 407.072 310.32C408.034 308.818 409.895 306.847 411.717 306.555C414.697 306.078 417.557 307.856 418.772 310.699C419.008 311.254 419.183 311.848 419.284 312.476C419.385 313.103 419.404 313.722 419.353 314.325C419.14 316.808 417.698 318.968 415.588 319.964C417.904 320.247 419.949 321.848 420.928 324.14C421.164 324.695 421.339 325.289 421.44 325.917C421.541 326.544 421.56 327.163 421.509 327.766C421.244 330.845 419.086 333.43 416.107 333.907C414.282 334.201 411.904 332.827 410.518 331.703C411.343 332.68 412.529 334.726 412.75 336.112C413.362 339.92 410.995 343.469 407.461 344.035Z" fill="#127754"/>
<path d="M395.05 307.565C393.942 313.2 394.405 318.399 397.505 322.864C391.725 321.48 385.631 323.084 379.423 325.767" stroke="white" stroke-width="1.07726" stroke-linecap="round" stroke-linejoin="round"/>
<path d="M415.588 319.963C409.095 323.161 403.085 324.042 397.506 322.865C396.658 327.536 397.953 332.758 399.96 338.164" stroke="white" stroke-width="1.07726" stroke-linecap="round" stroke-linejoin="round"/>
<path d="M105.047 294.499C105.047 294.499 111.235 361.547 156.414 387.971" stroke="#1A1A1A" stroke-width="1.07726" stroke-linecap="round" stroke-linejoin="round"/>
<path d="M128.796 294.036C127.418 297.789 123.014 299.627 118.964 298.135C123.014 299.627 125.177 303.88 123.796 307.633C122.415 311.389 118.011 313.224 113.962 311.736C112.491 311.193 110.401 308.515 109.506 307.398C110.445 309.159 111.535 313.007 110.823 314.944C109.66 318.111 106.358 319.927 102.92 319.555C102.249 319.481 101.573 319.327 100.906 319.081C100.239 318.836 99.624 318.516 99.0647 318.136C96.7595 316.569 95.4435 313.981 95.6304 311.377C94.083 313.48 91.4052 314.599 88.635 314.299C87.9639 314.225 87.2889 314.07 86.6215 313.825C85.9541 313.58 85.3395 313.259 84.7801 312.879C81.9191 310.935 80.5832 307.417 81.7464 304.25C82.4589 302.31 86.3471 300.186 88.2007 299.451C86.8003 299.721 82.9083 300.312 81.4338 299.769C77.3844 298.281 75.2226 294.029 76.6028 290.272C77.9839 286.52 82.3873 284.681 86.4373 286.173C82.3873 284.681 80.2221 280.43 81.6028 276.677C82.9833 272.921 87.387 271.085 91.4364 272.573C92.9109 273.116 94.8102 274.844 95.7047 275.957C94.7657 274.196 93.863 271.302 94.5757 269.366C95.742 266.198 99.0408 264.382 102.479 264.754C103.15 264.828 103.825 264.982 104.492 265.227C105.159 265.472 105.774 265.793 106.333 266.172C108.638 267.74 109.955 270.329 109.771 272.932C111.316 270.829 113.996 269.709 116.766 270.01C117.438 270.084 118.113 270.238 118.781 270.484C119.447 270.729 120.062 271.05 120.621 271.429C123.479 273.374 124.818 276.892 123.652 280.06C122.94 281.999 120.298 283.567 118.444 284.303C119.848 284.033 122.492 283.997 123.964 284.539C128.014 286.028 130.18 290.28 128.796 294.036Z" fill="#339D7D"/>
<path d="M86.436 286.172C91.3243 290.339 96.6483 292.731 102.7 292.154C98.1859 297.033 96.4139 303.855 95.63 311.378" stroke="#1A1A1A" stroke-width="1.07726" stroke-linecap="round" stroke-linejoin="round"/>
<path d="M109.77 272.932C109.334 281.015 106.902 287.358 102.7 292.154C106.791 295.538 112.593 297.134 118.964 298.137" stroke="#1A1A1A" stroke-width="1.07726" stroke-linecap="round" stroke-linejoin="round"/>
<path d="M47.6579 350.439C47.6579 350.439 136.539 315.749 198.678 356.234" stroke="#1A1A1A" stroke-width="1.07726" stroke-linecap="round" stroke-linejoin="round"/>
<path d="M54.2022 386.024C59.1512 383.561 61.0102 377.229 58.3461 371.889C61.0102 377.229 67.1829 379.557 72.1319 377.09C77.0856 374.622 78.9403 368.291 76.2803 362.95C75.3115 361.01 71.3133 358.544 69.643 357.484C72.2055 358.508 77.6598 359.423 80.2139 358.149C84.3905 356.07 86.3866 351.256 85.3536 346.587C85.1504 345.675 84.8365 344.771 84.3977 343.891C83.9595 343.011 83.4263 342.215 82.8193 341.504C80.3161 338.573 76.558 337.156 73.0076 337.808C75.6645 335.362 76.7959 331.511 75.9626 327.749C75.7594 326.838 75.4451 325.933 75.0067 325.053C74.5679 324.173 74.0345 323.378 73.4274 322.666C70.3217 319.028 65.2826 317.725 61.1061 319.804C58.5476 321.078 56.2182 326.745 55.4888 329.404C55.6471 327.438 55.8692 321.999 54.9007 320.055C52.2408 314.714 46.0686 312.387 41.115 314.854C36.1656 317.321 34.3065 323.653 36.9706 328.993C34.3065 323.653 28.1347 321.321 23.1853 323.788C18.2315 326.255 16.3768 332.587 19.0366 337.927C20.0053 339.872 22.6685 342.22 24.3345 343.28C21.7716 342.257 17.6573 341.455 15.103 342.728C10.9267 344.812 8.93055 349.622 9.96292 354.291C10.1667 355.202 10.481 356.106 10.9193 356.987C11.3575 357.866 11.8911 358.662 12.4978 359.374C15.0008 362.304 18.7587 363.722 22.3092 363.074C19.6523 365.516 18.5208 369.371 19.3541 373.133C19.5573 374.044 19.8717 374.949 20.3105 375.829C20.7487 376.708 21.2819 377.504 21.889 378.216C24.9948 381.849 30.034 383.157 34.2109 381.073C36.7694 379.8 38.524 375.931 39.2538 373.271C39.095 375.242 39.4475 378.882 40.4164 380.823C43.0762 386.163 49.2485 388.495 54.2022 386.024Z" fill="#127754"/>
<path d="M36.9688 328.992C43.4373 335.08 47.5338 342.034 47.6578 350.44C53.6791 343.496 62.7867 340.025 73.0077 337.807" stroke="white" stroke-width="1.07726" stroke-linecap="round" stroke-linejoin="round"/>
<path d="M22.3086 363.072C33.3534 361.248 41.7023 356.944 47.6584 350.44C52.9289 355.55 56.003 363.284 58.3475 371.887" stroke="white" stroke-width="1.07726" stroke-linecap="round" stroke-linejoin="round"/>
<path d="M322.836 338.326C314.463 339.418 309.501 351.321 308.709 353.284C307.754 351.572 297.589 334.069 276.3 331.678C254.464 329.225 240.488 344.867 239.321 346.221C224.603 328.608 206.415 324.684 199.018 330.847C192.372 336.383 194.824 349.73 195.278 352.038C174.543 333.699 145.678 335.307 131.707 350.792C122.074 361.468 120.022 378.188 125.474 393.587L347.765 371.15C345.201 349.538 332.218 337.103 322.836 338.326Z" fill="url(#paint6_linear_548_4446)"/>
<path d="M390.556 376.55C390.556 369.068 365.251 363.003 334.036 363.003C322.097 363.003 311.025 363.891 301.901 365.406C292.768 360.534 275.048 357.23 254.683 357.23C232.659 357.23 213.73 361.095 205.409 366.627C200.649 366.151 195.437 365.887 189.972 365.887C167.538 365.887 149.352 370.311 149.352 375.768C149.352 377.162 150.541 378.488 152.682 379.69C111.319 384.299 83.8193 392.468 83.8193 401.778C83.8193 416.168 149.532 427.835 230.591 427.835C311.651 427.835 377.362 416.168 377.362 401.778C377.362 397.062 370.309 392.64 357.974 388.825C377.222 386.665 390.556 381.981 390.556 376.55Z" fill="url(#paint7_linear_548_4446)"/>
<g opacity="0.5">
<path d="M303.307 398.278C303.307 405.956 274.078 412.181 238.023 412.181C201.966 412.181 172.737 405.956 172.737 398.278C172.737 390.6 201.966 384.375 238.023 384.375C274.078 384.375 303.307 390.6 303.307 398.278Z" fill="#152952"/>
</g>
<path d="M347.854 279.714C346.306 279.616 345.207 279.544 343.659 279.445L339.677 276.117C336.906 277.491 336.613 277.633 333.841 279.004L334.071 284.189C333.21 285.48 332.601 286.396 331.741 287.687L326.868 289.471C326.67 292.557 326.65 292.882 326.452 295.97L331.054 298.361C331.742 299.751 332.232 300.74 332.918 302.129L332.028 307.24C334.602 308.954 334.872 309.135 337.447 310.851L341.82 308.06C343.368 308.159 344.468 308.23 346.016 308.331L349.998 311.656C352.768 310.285 353.059 310.141 355.832 308.769L355.603 303.585C356.465 302.296 357.074 301.379 357.934 300.089L362.804 298.303C363.004 295.217 363.023 294.892 363.223 291.806L358.619 289.413C357.932 288.023 357.443 287.034 356.754 285.645L357.645 280.535C355.072 278.819 354.8 278.639 352.228 276.925L347.854 279.714ZM351.953 294.828C351.434 298.758 347.826 301.522 343.896 301.003C339.967 300.483 337.2 296.876 337.719 292.947C338.239 289.016 341.848 286.252 345.777 286.771C349.708 287.291 352.473 290.898 351.953 294.828Z" fill="url(#paint8_linear_548_4446)"/>
<path d="M391.274 127.266H390.691C388.97 127.266 387.575 125.871 387.575 124.15V119.067C387.575 117.346 388.97 115.951 390.691 115.951H391.274C392.995 115.951 394.389 117.346 394.389 119.067V124.15C394.389 125.871 392.995 127.266 391.274 127.266Z" fill="#E3E3E3"/>
<path d="M402.876 127.266H402.294C400.573 127.266 399.178 125.871 399.178 124.15V112.834C399.178 111.114 400.573 109.719 402.294 109.719H402.876C404.597 109.719 405.992 111.114 405.992 112.834V124.15C405.992 125.871 404.597 127.266 402.876 127.266Z" fill="#E3E3E3"/>
<path d="M414.575 127.266H413.991C412.271 127.266 410.876 125.871 410.876 124.15V101.807C410.876 100.086 412.271 98.6914 413.991 98.6914H414.575C416.295 98.6914 417.69 100.086 417.69 101.807V124.15C417.69 125.871 416.295 127.266 414.575 127.266Z" fill="#E3E3E3"/>
<path d="M357.945 158.831C357.945 160.493 367.294 174.205 367.294 174.205L369.995 154.676L357.945 158.831Z" fill="#B013FF"/>
<path d="M381.56 149.371C380.268 150.417 375.5 166.313 375.5 166.313L392.373 156.118L381.56 149.371Z" fill="#B013FF"/>
<path d="M404.648 162.507C402.987 162.555 389.465 169.219 389.465 169.219L409.038 170.454L404.648 162.507Z" fill="#B013FF"/>
<path d="M78.3988 173.242C78.3988 183.229 70.3024 191.326 60.3156 191.326C50.3282 191.326 42.2324 183.229 42.2324 173.242C42.2324 163.255 50.3282 155.159 60.3156 155.159C70.3024 155.159 78.3988 163.255 78.3988 173.242Z" fill="#FFDE6F"/>
<path d="M60.3158 172.101C57.9561 172.101 56.0536 170.144 56.1439 167.764C56.2257 165.601 57.9893 163.837 60.1531 163.755C62.2852 163.674 64.078 165.193 64.4277 167.207C64.5001 167.621 64.8532 167.927 65.2738 167.927C65.8074 167.927 66.2096 167.445 66.1189 166.919C65.6328 164.101 63.1452 161.969 60.1725 162.04C57.049 162.114 54.5008 164.661 54.4274 167.785C54.3496 171.102 57.0158 173.816 60.3158 173.816C62.6755 173.816 64.577 175.773 64.4867 178.153C64.4044 180.316 62.6413 182.079 60.4775 182.161C58.3454 182.242 56.5526 180.724 56.2024 178.71C56.1305 178.295 55.7769 177.99 55.3564 177.99C54.8227 177.99 54.421 178.471 54.5118 178.998C54.9973 181.815 57.4854 183.948 60.4581 183.878C63.5821 183.804 66.1303 181.255 66.2032 178.131C66.2805 174.813 63.6153 172.101 60.3158 172.101Z" fill="white"/>
<path d="M60.3163 159.419C59.8496 159.419 59.4707 159.76 59.4707 160.181V186.304C59.4707 186.725 59.8496 187.066 60.3163 187.066C60.7825 187.066 61.1604 186.725 61.1604 186.304V160.181C61.1604 159.76 60.7825 159.419 60.3163 159.419Z" fill="white"/>
<path d="M336.859 59.0417C341.231 62.8598 347.201 65.8152 353.134 66.9287L357.223 34.1266L336.859 59.0417Z" fill="#D0334A"/>
<path d="M357.106 34.1267L385.742 53.6358C389.754 48.1137 392.109 41.3128 392.075 33.9637C391.99 15.6056 377.038 0.792655 358.68 0.877782C340.322 0.963375 325.509 15.9148 325.594 34.273C325.604 36.4813 325.832 38.6367 326.252 40.7225L357.106 34.1267Z" fill="#ECECEC"/>
<path d="M326.179 40.7468C327.65 48.0471 331.512 54.4755 336.909 59.1881L357.032 34.1505L326.179 40.7468Z" fill="#FFB013"/>
<path d="M353.114 66.8664C355.167 67.2229 357.282 67.3931 359.443 67.3539C370.451 67.1536 380.11 61.6233 386.008 53.27L357.11 34.1497L353.114 66.8664Z" fill="#1B50C6"/>
<path d="M101.405 53.7238C101.811 50.65 103.432 48.0357 105.721 46.2972C103.648 43.5896 101.337 40.5891 99.1477 37.788C94.6927 41.2003 91.5405 46.3123 90.747 52.3151C90.5658 53.6859 90.5168 55.0431 90.5878 56.3752L101.326 55.7922C101.29 55.1133 101.313 54.4224 101.405 53.7238Z" fill="#D0334A"/>
<path d="M115.07 44.3264C120.573 45.6338 124.303 50.9221 123.546 56.651C122.738 62.7643 117.126 67.0655 111.013 66.2574C107.34 65.7719 104.323 63.5524 102.673 60.533L93.234 65.6815C96.4725 71.6077 102.396 75.9625 109.604 76.9153C121.604 78.5015 132.618 70.0598 134.204 58.0598C135.691 46.8148 128.371 36.4351 117.569 33.8686L115.07 44.3264Z" fill="#FFB013"/>
<path d="M105.72 46.2979C107.983 44.5785 110.898 43.7165 113.939 44.1184C114.323 44.1692 114.7 44.2388 115.07 44.3267L117.569 33.8685C116.843 33.6959 116.102 33.5584 115.348 33.4586C109.35 32.6658 103.598 34.3783 99.1469 37.7882C101.336 40.5894 103.647 43.5903 105.72 46.2979Z" fill="#FFDE6F"/>
<path d="M101.327 55.7925L90.5883 56.3755C90.7653 59.7015 91.6972 62.8684 93.2342 65.6813L102.674 60.5328C101.89 59.0999 101.417 57.4867 101.327 55.7925Z" fill="#1B50C6"/>
<path d="M102.99 336.668L105.112 330.761L180.644 270.465L259.173 290.663L352.655 210.941L340.752 186.937L342.603 181.029L402.667 182.51V188.256L375.763 250.631L365.666 230.419L259.987 321.273L177.891 297.073L102.99 363.511V336.668Z" fill="#535053"/>
<path d="M105.113 330.762L182.767 264.558L261.295 284.756L354.777 205.035L342.875 181.03L402.667 182.511L377.886 244.724L367.789 224.512L262.11 315.366L180.014 291.166L105.113 357.604V330.762Z" fill="#B462FF"/>
<path d="M256.697 371.863C256.697 371.863 257.57 375.701 259.315 383.943C261.061 392.186 261.472 399.433 261.472 399.433H209.693C209.693 399.433 209.929 393.049 213.184 390.907C216.439 388.764 225.527 385.08 233.008 382.948L240.489 380.816V375.984L256.697 371.863Z" fill="#1A1A1A"/>
<path d="M241.012 387.254C241.012 387.254 235.765 381.609 235.344 381.529C234.924 381.449 231.877 382.281 231.877 382.281C231.877 382.281 233.062 387.545 235.817 388.068C238.572 388.591 241.012 387.254 241.012 387.254Z" fill="white"/>
<path d="M230.422 382.81L230.759 386.867L227.84 388.108L227.681 384.142L230.422 382.81Z" fill="white"/>
<path d="M225.978 384.375L226.315 388.432L223.395 389.674L223.236 385.708L225.978 384.375Z" fill="white"/>
<path d="M260.481 372.814C254.564 379.321 237.972 377.577 237.972 377.577C237.972 377.577 195.553 316.637 192.377 288.388C189.748 264.983 207.325 211.29 213.427 193.568C214.692 189.903 215.463 187.775 215.463 187.775L247.782 184.717L248.416 184.656C248.416 184.656 249.496 188.245 250.729 193.605C252.601 201.753 254.822 214 254.117 223.958C253.933 226.553 253.294 229.874 252.346 233.629C250.796 239.764 248.424 247.056 245.877 254.229C242.334 264.199 238.45 273.938 235.958 280.018C234.367 283.905 233.345 286.295 233.345 286.295C233.345 286.295 251.534 328.379 260.481 372.814Z" fill="#152952"/>
<path d="M254.117 223.958C254.256 221.986 254.281 219.926 254.216 217.824C252.021 221.108 229.763 254.58 226.296 267.197C222.648 280.471 222.648 286.294 222.648 286.294C222.648 286.294 246.51 348.498 256.269 375.642C257.923 374.94 259.385 374.019 260.48 372.814C251.535 328.38 233.344 286.294 233.344 286.294C233.344 286.294 252.947 240.462 254.117 223.958Z" fill="#0F2040"/>
<path d="M216.914 265.107C216.914 265.107 219.21 266.42 208.66 264.217C203.876 263.217 200.433 262.906 198.099 262.864C195.922 262.825 194.221 264.827 194.415 267.209L197.762 308.221C197.762 308.221 202.381 311.442 206.204 308.289C210.027 305.135 209.455 288.293 211.37 285.576C213.285 282.858 214.644 280.929 214.644 280.929L222.448 279.957L216.914 265.107Z" fill="#1A1A1A"/>
<path d="M208.174 278.6C208.174 278.6 213.473 284.195 213.526 284.619C213.579 285.044 212.556 288.033 212.556 288.033C212.556 288.033 207.377 286.514 207.03 283.731C206.683 280.949 208.174 278.6 208.174 278.6Z" fill="white"/>
<path d="M207.111 289.828L210.861 291.412L210.607 294.574L207.019 292.875L207.111 289.828Z" fill="white"/>
<path d="M206.435 294.492L210.186 296.076L209.932 299.239L206.344 297.539L206.435 294.492Z" fill="white"/>
<path d="M317.166 263.117C310.793 287.589 271.039 288.578 242.926 285.374C228.499 283.726 218.784 281.609 218.784 281.609L215.946 264.853C215.946 264.853 224.185 261.212 251.388 256.138C258.735 254.57 266.1 252.937 276.299 250.859C267.267 244.565 261.394 238.467 256.213 231.217C248.011 219.743 243.519 209.851 243.519 209.851L234.134 187.582L274.246 182.049C274.246 182.049 323.825 237.348 317.166 263.117Z" fill="#152952"/>
<path d="M307.336 269.822C299.048 279.519 237.9 281.115 218.379 279.351L218.783 281.608C218.783 281.608 310.068 301.118 317.166 263.117C320.371 245.957 304.634 221.467 291.369 203.338C302.549 225.636 315.275 260.534 307.336 269.822Z" fill="#0F2040"/>
<path d="M206.254 143.538C206.254 143.538 204.951 144.685 202.608 146.387C194.877 152.007 175.89 163.686 155.121 160.285C135.922 157.141 123.627 114.022 123.627 114.022L124.567 113.595L132.797 109.854C132.797 109.854 144.214 127.281 156.34 142.1C164.245 137.612 200.041 126.819 200.041 126.819L206.254 143.538Z" fill="#EF5667"/>
<path d="M202.609 146.387C194.878 152.007 175.891 163.686 155.122 160.285C135.923 157.141 123.628 114.022 123.628 114.022L124.568 113.595C127.928 122.399 139.99 151.933 153.17 155.872C168.703 160.512 202.444 144.775 202.444 144.775C202.444 144.775 202.491 145.379 202.609 146.387Z" fill="#D0334A"/>
<path d="M226.17 116.543L217.109 135.902L211.901 147.028L210.237 147.789L207.28 149.144L194.163 155.151C192.731 153.667 191.309 151.318 189.894 148.379C187.635 143.694 185.396 137.509 183.162 130.949C183.205 130.972 184.049 131.237 195.882 124.52C208.101 117.583 226.17 116.543 226.17 116.543Z" fill="#A66FFF"/>
<path d="M210.901 137.888C210.901 137.888 206.712 140.263 206.112 143.794C200.449 146.845 194.156 147.971 189.893 148.378C191.309 151.317 192.731 153.666 194.165 155.15L211.902 147.028L218.322 133.311C216.895 133.867 210.901 137.888 210.901 137.888Z" fill="#9813FF"/>
<path d="M132.808 109.865C132.808 109.865 128.799 96.9212 123.783 93.9769C118.767 91.0325 123.72 102.731 123.72 102.731C123.72 102.731 120.421 100.085 114.234 97.7318C108.046 95.3787 102.077 99.8794 101.246 100.698C100.415 101.517 103.088 105.803 107.673 107.136C112.258 108.468 123.639 114.032 123.639 114.032L132.808 109.865Z" fill="#FB948F"/>
<path d="M359.831 113.258C359.831 113.258 359.163 114.898 358.736 116.565C354.524 132.822 342.982 146.164 331.315 155.122C316.551 166.456 283.408 144.787 283.408 144.787L284.817 142.35L293.585 126.215C293.585 126.215 305.776 130.31 323.419 138.992C326.044 132.929 351.237 109.147 351.237 109.147L359.831 113.258Z" fill="#EF5667"/>
<path d="M358.579 116.429C356.659 128.312 342.982 146.164 331.315 155.122C316.551 166.456 283.408 144.787 283.408 144.787L284.816 142.35C293.354 148.325 317.516 158.196 327.95 151.214C336.479 145.508 351.969 132.223 358.579 116.429Z" fill="#D0334A"/>
<path d="M348.883 111.37L351.834 97.1954C351.834 97.1954 355.004 91.956 356.057 95.5553C357.256 99.6556 355.859 102.316 355.859 102.316C355.859 102.316 377.327 88.9294 379.117 92.8513C381.776 98.7038 361.215 113.466 359.306 114.964C357.722 116.21 351.365 115.602 348.883 111.37Z" fill="#FB948F"/>
<path d="M302.695 128.143C299.592 134.366 294.519 141.005 291.964 143.401C290.362 144.904 288.907 146.009 287.789 146.759C285.463 148.318 285.322 148.501 285.038 148.595L256.512 133.313L260.091 113.434C260.091 113.434 287.194 112.958 302.695 128.143Z" fill="#986FFF"/>
<path d="M294.903 139.901C293.471 141.749 289.655 146.077 285.092 148.533C284.121 147.906 266.194 139.016 265.149 137.788C265.792 138.177 283.01 134.084 294.903 139.901Z" fill="#8E13FF"/>
<path d="M280.212 190.168C277.517 190.974 272.785 191.926 265.592 191.861C262.774 192.945 257.177 193.466 250.731 193.667C247.487 193.767 244.03 193.786 240.603 193.755C228.266 193.641 216.343 192.868 216.343 192.868L213.43 193.291C214.729 189.638 215.519 187.517 215.519 187.517L247.864 184.753L274.579 182.415C274.579 182.415 276.824 185.324 280.212 190.168Z" fill="#0F2040"/>
<path d="M233.79 114.16C233.79 114.16 205.782 115.926 208.119 144.516C210.457 173.107 210.374 188.345 212.367 189.52C214.36 190.695 274.419 184.367 274.419 184.367C274.419 184.367 280.35 120.067 263.443 114.43C246.536 108.793 233.79 114.16 233.79 114.16Z" fill="#876FFF"/>
<path d="M239.296 123.255L233.085 113.616L227.913 115.3C227.913 115.3 231.661 134.235 236.281 132.718C240.901 131.202 239.296 123.255 239.296 123.255Z" fill="#AB13FF"/>
<path d="M243.154 120.938L249.539 111.414L254.68 113.191C254.68 113.191 253.845 132.993 249.253 131.392C244.661 129.792 243.154 120.938 243.154 120.938Z" fill="#AB13FF"/>
<path d="M233.041 116.709C234.868 131.063 247.557 132.183 249.761 115.964L250.164 90.7052L232.888 92.0612L232.687 108.839L233.041 116.709Z" fill="#FB948F"/>
<path d="M270.355 162.586C266.936 187.311 248.499 184.698 248.499 184.698C248.499 184.698 239.62 185.117 239.429 187.821L274.419 184.367C274.419 184.367 275.878 168.537 275.284 151.897C273.811 155.084 271.014 157.819 270.355 162.586Z" fill="#AB13FF"/>
<path d="M232.823 111.963C235.136 111.305 238.092 109.782 239.738 107.361C238.476 108.074 232.686 108.913 232.686 108.913L232.823 111.963Z" fill="#E7756F"/>
<path d="M221.892 77.6877C221.892 77.6877 215.771 81.5904 217.051 93.8602L218.331 106.129C218.331 106.129 227.61 109.937 229.969 102.957C232.327 95.9775 221.892 77.6877 221.892 77.6877Z" fill="#0F2040"/>
<path d="M249.88 100.445C250.986 93.6249 250.223 67.6696 233.786 69.0493C222.331 70.0106 217.836 79.3507 220.1 88.5439C222.364 97.7372 223.32 110.18 228.546 110.215C233.772 110.25 232.968 109.855 232.968 109.855C232.968 109.855 248.967 106.075 249.88 100.445Z" fill="#FB948F"/>
<path d="M217.246 79.043C217.246 79.043 225.481 91.2398 232.369 90.5212L239.258 89.8026C239.258 89.8026 255.618 88.096 250.813 77.4998C246.008 66.903 238.027 67.7356 238.027 67.7356C234.386 61.7179 215.764 64.8359 217.246 79.043Z" fill="#0F2040"/>
<path d="M264.025 108.315C264.025 108.315 263.037 109.535 250.397 110.854C246.518 110.282 244.388 103.951 243.232 97.8017C244.48 97.063 250.096 93.5264 248.248 90.7035C246.783 88.4611 243.757 88.8504 242.11 89.2705C241.935 87.1867 241.889 85.8294 241.889 85.8294C241.889 85.8294 243.192 71.557 248.94 74.1221C254.688 76.6868 264.025 108.315 264.025 108.315Z" fill="#0F2040"/>
<defs>
<linearGradient id="paint0_linear_548_4446" x1="244.052" y1="210.379" x2="348.119" y2="84.8457" gradientUnits="userSpaceOnUse">
<stop stop-color="#B868FC"/>
<stop offset="0.5" stop-color="#D9B3FC"/>
<stop offset="1" stop-color="white"/>
</linearGradient>
<linearGradient id="paint1_linear_548_4446" x1="91.8749" y1="80.6053" x2="234.675" y2="235.072" gradientUnits="userSpaceOnUse">
<stop stop-color="#B868FC"/>
<stop offset="0.5" stop-color="#D9B3FC"/>
<stop offset="1" stop-color="white"/>
</linearGradient>
<linearGradient id="paint2_linear_548_4446" x1="285.356" y1="257.065" x2="396.889" y2="257.065" gradientUnits="userSpaceOnUse">
<stop stop-color="#B168FC"/>
<stop offset="0.5" stop-color="#CCB3FC"/>
<stop offset="1" stop-color="white"/>
</linearGradient>
<linearGradient id="paint3_linear_548_4446" x1="35.567" y1="236.497" x2="103.7" y2="235.564" gradientUnits="userSpaceOnUse">
<stop stop-color="#B168FC"/>
<stop offset="0.5" stop-color="#CCB3FC"/>
<stop offset="1" stop-color="white"/>
</linearGradient>
<linearGradient id="paint4_linear_548_4446" x1="398.301" y1="335.021" x2="439.835" y2="365.821" gradientUnits="userSpaceOnUse">
<stop stop-color="#B168FC"/>
<stop offset="0.5" stop-color="#CCB3FC"/>
<stop offset="1" stop-color="white"/>
</linearGradient>
<linearGradient id="paint5_linear_548_4446" x1="396.902" y1="244.932" x2="415.102" y2="264.532" gradientUnits="userSpaceOnUse">
<stop stop-color="#B168FC"/>
<stop offset="0.5" stop-color="#CCB3FC"/>
<stop offset="1" stop-color="white"/>
</linearGradient>
<linearGradient id="paint6_linear_548_4446" x1="233.894" y1="319.936" x2="237.627" y2="401.136" gradientUnits="userSpaceOnUse">
<stop stop-color="#BB68FC"/>
<stop offset="0.5" stop-color="#B6B3FC"/>
<stop offset="1" stop-color="white"/>
</linearGradient>
<linearGradient id="paint7_linear_548_4446" x1="80.3875" y1="392.533" x2="400.521" y2="392.533" gradientUnits="userSpaceOnUse">
<stop stop-color="#CB68FC"/>
<stop offset="0.5" stop-color="#D75CFA"/>
<stop offset="1" stop-color="#C852F7"/>
</linearGradient>
<linearGradient id="paint8_linear_548_4446" x1="327.322" y1="323.111" x2="357.95" y2="273.026" gradientUnits="userSpaceOnUse">
<stop stop-color="#68B2FC"/>
<stop offset="0.5" stop-color="#BB5CFA"/>
<stop offset="1" stop-color="#529BF7"/>
</linearGradient>
</defs>
</svg>
