<svg width="16" height="17" viewBox="0 0 16 17" fill="none" xmlns="http://www.w3.org/2000/svg">
<g clip-path="url(#clip0_501_5316)">
<path d="M8 6.5C8.55228 6.5 9 6.05228 9 5.5C9 4.94772 8.55228 4.5 8 4.5C7.44772 4.5 7 4.94772 7 5.5C7 6.05228 7.44772 6.5 8 6.5Z" fill="#8E8E8F"/>
<path d="M11.5 5.5C11.5 9 8 11 8 11C8 11 4.5 9 4.5 5.5C4.5 4.57174 4.86875 3.6815 5.52513 3.02513C6.1815 2.36875 7.07174 2 8 2C8.92826 2 9.8185 2.36875 10.4749 3.02513C11.1313 3.6815 11.5 4.57174 11.5 5.5Z" stroke="#8E8E8F" stroke-width="2" stroke-linecap="round" stroke-linejoin="round"/>
<path d="M12.5 10.1963C13.7325 10.6513 14.5 11.2913 14.5 12C14.5 13.3807 11.59 14.5 8 14.5C4.41 14.5 1.5 13.3807 1.5 12C1.5 11.2913 2.2675 10.6513 3.5 10.1963" stroke="#8E8E8F" stroke-width="2" stroke-linecap="round" stroke-linejoin="round"/>
</g>
<defs>
<clipPath id="clip0_501_5316">
<rect width="16" height="16" fill="white" transform="translate(0 0.5)"/>
</clipPath>
</defs>
</svg>
