<svg width="25" height="25" viewBox="0 0 25 25" fill="none" xmlns="http://www.w3.org/2000/svg">
<g clip-path="url(#clip0_918_3417)">
<path d="M4 5.40625V17.4062C4 17.8041 4.15804 18.1856 4.43934 18.4669C4.72064 18.7482 5.10218 18.9062 5.5 18.9062H20.5C20.6989 18.9062 20.8897 18.8272 21.0303 18.6866C21.171 18.5459 21.25 18.3552 21.25 18.1562V7.65625C21.25 7.45734 21.171 7.26657 21.0303 7.12592C20.8897 6.98527 20.6989 6.90625 20.5 6.90625H5.5C5.10218 6.90625 4.72064 6.74821 4.43934 6.46691C4.15804 6.18561 4 5.80407 4 5.40625ZM4 5.40625C4 5.00843 4.15804 4.62689 4.43934 4.34559C4.72064 4.06429 5.10218 3.90625 5.5 3.90625H18.25" stroke="#2D1C4D" stroke-width="2" stroke-linecap="round" stroke-linejoin="round"/>
<path d="M17.125 13.6562C17.7463 13.6562 18.25 13.1526 18.25 12.5312C18.25 11.9099 17.7463 11.4062 17.125 11.4062C16.5037 11.4062 16 11.9099 16 12.5312C16 13.1526 16.5037 13.6562 17.125 13.6562Z" fill="#2D1C4D"/>
</g>
<defs>
<clipPath id="clip0_918_3417">
<rect width="24" height="24" fill="white" transform="translate(0.25 0.15625)"/>
</clipPath>
</defs>
</svg>
