<svg width="14" height="12" viewBox="0 0 14 12" fill="none" xmlns="http://www.w3.org/2000/svg">
<path d="M10.5 2.5H1.5C1.23478 2.5 0.98043 2.60536 0.792893 2.79289C0.605357 2.98043 0.5 3.23478 0.5 3.5V10.5C0.5 10.7652 0.605357 11.0196 0.792893 11.2071C0.98043 11.3946 1.23478 11.5 1.5 11.5H10.5C10.7652 11.5 11.0196 11.3946 11.2071 11.2071C11.3946 11.0196 11.5 10.7652 11.5 10.5V3.5C11.5 3.23478 11.3946 2.98043 11.2071 2.79289C11.0196 2.60536 10.7652 2.5 10.5 2.5ZM10.5 10.5H1.5V3.5H10.5V10.5ZM13.5 1.5V9C13.5 9.13261 13.4473 9.25979 13.3536 9.35355C13.2598 9.44732 13.1326 9.5 13 9.5C12.8674 9.5 12.7402 9.44732 12.6464 9.35355C12.5527 9.25979 12.5 9.13261 12.5 9V1.5H3C2.86739 1.5 2.74021 1.44732 2.64645 1.35355C2.55268 1.25979 2.5 1.13261 2.5 1C2.5 0.867392 2.55268 0.740215 2.64645 0.646447C2.74021 0.552679 2.86739 0.5 3 0.5H12.5C12.7652 0.5 13.0196 0.605357 13.2071 0.792893C13.3946 0.98043 13.5 1.23478 13.5 1.5Z" fill="white"/>
</svg>
