<svg width="16" height="10" viewBox="0 0 16 10" fill="none" xmlns="http://www.w3.org/2000/svg">
<path d="M8 2.25C7.50555 2.25 7.0222 2.39662 6.61107 2.67133C6.19995 2.94603 5.87952 3.33648 5.6903 3.79329C5.50108 4.25011 5.45157 4.75277 5.54804 5.23773C5.6445 5.72268 5.8826 6.16814 6.23223 6.51777C6.58186 6.8674 7.02732 7.1055 7.51227 7.20196C7.99723 7.29843 8.49989 7.24892 8.95671 7.0597C9.41352 6.87048 9.80397 6.55005 10.0787 6.13893C10.3534 5.7278 10.5 5.24445 10.5 4.75C10.5 4.08696 10.2366 3.45107 9.76777 2.98223C9.29893 2.51339 8.66304 2.25 8 2.25ZM8 6.25C7.70333 6.25 7.41332 6.16203 7.16664 5.9972C6.91997 5.83238 6.72771 5.59811 6.61418 5.32403C6.50065 5.04994 6.47094 4.74834 6.52882 4.45736C6.5867 4.16639 6.72956 3.89912 6.93934 3.68934C7.14912 3.47956 7.41639 3.3367 7.70736 3.27882C7.99834 3.22094 8.29994 3.25065 8.57403 3.36418C8.84811 3.47771 9.08238 3.66997 9.2472 3.91664C9.41203 4.16332 9.5 4.45333 9.5 4.75C9.5 5.14782 9.34196 5.52936 9.06066 5.81066C8.77936 6.09196 8.39782 6.25 8 6.25ZM15 0.25H1C0.867392 0.25 0.740215 0.302679 0.646447 0.396447C0.552678 0.490215 0.5 0.617392 0.5 0.75V8.75C0.5 8.88261 0.552678 9.00979 0.646447 9.10355C0.740215 9.19732 0.867392 9.25 1 9.25H15C15.1326 9.25 15.2598 9.19732 15.3536 9.10355C15.4473 9.00979 15.5 8.88261 15.5 8.75V0.75C15.5 0.617392 15.4473 0.490215 15.3536 0.396447C15.2598 0.302679 15.1326 0.25 15 0.25ZM12.1031 8.25H3.89687C3.729 7.68225 3.42175 7.16553 3.00311 6.74689C2.58447 6.32825 2.06775 6.021 1.5 5.85312V3.64687C2.06775 3.479 2.58447 3.17175 3.00311 2.75311C3.42175 2.33447 3.729 1.81775 3.89687 1.25H12.1031C12.271 1.81775 12.5782 2.33447 12.9969 2.75311C13.4155 3.17175 13.9323 3.479 14.5 3.64687V5.85312C13.9323 6.021 13.4155 6.32825 12.9969 6.74689C12.5782 7.16553 12.271 7.68225 12.1031 8.25ZM14.5 2.58563C13.9003 2.32775 13.4223 1.84973 13.1644 1.25H14.5V2.58563ZM2.83562 1.25C2.57774 1.84973 2.09973 2.32775 1.5 2.58563V1.25H2.83562ZM1.5 6.91438C2.09973 7.17226 2.57774 7.65027 2.83562 8.25H1.5V6.91438ZM13.1644 8.25C13.4223 7.65027 13.9003 7.17226 14.5 6.91438V8.25H13.1644Z" fill="white"/>
</svg>
