<svg width="28" height="25" viewBox="0 0 28 25" fill="none" xmlns="http://www.w3.org/2000/svg">
<path d="M2.58371 6.25026H23.9226L24.0132 6.25286C24.821 6.28317 25.5856 6.62533 26.1465 7.20746C26.7073 7.7896 27.0208 8.56642 27.021 9.37478V21.875C27.021 22.7038 26.6918 23.4986 26.1057 24.0847C25.5197 24.6708 24.7248 25 23.896 25H4.10405C3.27524 25 2.48037 24.6708 1.89431 24.0847C1.30825 23.4986 0.979004 22.7038 0.979004 21.875V9.37478L0.980566 9.26801L0.985775 9.17426C0.949673 8.58577 1.0805 7.99906 1.3632 7.48167C1.6459 6.96428 2.06898 6.53776 2.58371 6.25026ZM18.6876 13.5415C18.135 13.5415 17.6051 13.761 17.2144 14.1517C16.8237 14.5424 16.6042 15.0723 16.6042 15.6249C16.6042 16.1774 16.8237 16.7073 17.2144 17.098C17.6051 17.4887 18.135 17.7082 18.6876 17.7082C19.2401 17.7082 19.77 17.4887 20.1607 17.098C20.5515 16.7073 20.771 16.1774 20.771 15.6249C20.771 15.0723 20.5515 14.5424 20.1607 14.1517C19.77 13.761 19.2401 13.5415 18.6876 13.5415ZM23.8163 2.31739C23.887 2.58068 23.9229 2.85208 23.9231 3.12469L23.9226 4.68721H6.92909L19.9892 0.106418C20.7897 -0.108015 21.6427 0.00434676 22.3604 0.418785C23.0781 0.833224 23.6018 1.51579 23.8163 2.31634" fill="#A86AB2"/>
</svg>
