<svg width="14" height="17" viewBox="0 0 14 17" fill="none" xmlns="http://www.w3.org/2000/svg">
<path d="M0.355007 6.54922L6.18076 0.822147C6.39922 0.607382 6.69051 0.499999 6.9818 0.499999C7.30949 0.499999 7.60078 0.607382 7.81925 0.822147L13.645 6.54922C14.1183 6.97875 14.1183 7.73042 13.645 8.15995C13.2081 8.62528 12.4434 8.62528 12.0065 8.15995L8.14695 4.40157L8.14694 15.3904C8.14694 15.9989 7.63719 16.5 7.01821 16.5C6.43563 16.5 5.81664 15.9989 5.81664 15.3904L5.81665 4.40156L1.9935 8.15995C1.55657 8.62528 0.791938 8.62528 0.355007 8.15995C-0.118335 7.73042 -0.118335 6.97875 0.355007 6.54922Z" fill="#7A00A3"/>
</svg>
