<svg width="14" height="13" viewBox="0 0 14 13" fill="none" xmlns="http://www.w3.org/2000/svg">
<path d="M4.24941 0.64452L12.378 1.45972C12.6828 1.49029 12.9517 1.64552 13.138 1.86944C13.3476 2.12134 13.4514 2.41394 13.426 2.71924L12.7498 10.8606C12.7223 11.4992 12.1445 11.9799 11.5116 11.8908C10.8744 11.8526 10.3854 11.2648 10.4636 10.6313L10.8841 5.26055L2.43696 12.2891C1.9692 12.6783 1.25795 12.6069 0.862039 12.1311C0.489421 11.6833 0.478725 10.887 0.946482 10.4978L9.39362 3.46925L4.05922 2.93427C3.42206 2.89602 2.933 2.30825 3.01124 1.67476C3.03866 1.03617 3.61648 0.55539 4.24941 0.64452Z" fill="#7A00A3"/>
</svg>
